<?xml version="1.0" encoding="utf-8"?>
<!-- Generator: Adobe Illustrator 26.0.1, SVG Export Plug-In . SVG Version: 6.00 Build 0)  -->
<svg version="1.1" id="Слой_1" xmlns="http://www.w3.org/2000/svg" xmlns:xlink="http://www.w3.org/1999/xlink" x="0px" y="0px"
	 viewBox="0 0 40 40" style="enable-background:new 0 0 40 40;" xml:space="preserve">
<style type="text/css">
	.st0{fill:#FF5834;}
</style>
<g>
	<path class="st0" d="M39.7,16.8c-0.6-4.5-2.8-8.8-6.1-12c-2.5-2.4-5.6-4.2-9-5c-1.7-0.5-3.3,0.9-3.4,2.7c-0.1,1.8,1.2,3.3,2.9,3.9
		c1.9,0.6,3.6,1.7,5.1,3.1c2.3,2.2,3.6,5,4.1,8.1c0.4,3.1-0.2,6.2-1.8,8.9c-1.6,2.7-4,4.8-6.9,5.7c-2.9,1-6.1,1.1-9,0.1
		c-3.1-0.9-5.7-2.8-7.4-5.5s-2.4-5.7-2.1-8.9c0.2-2.1,0.8-4,1.9-5.7c1-1.3,1-3.4-0.2-4.6S4.7,6.3,3.6,7.7c-2.1,2.8-3.3,6.1-3.6,9.6
		c-0.5,4.5,0.6,9.2,3,13.1s6.2,6.8,10.4,8.3c4.4,1.5,9,1.5,13.3-0.1C31,37,34.6,33.9,37,30C39.3,26,40.3,21.3,39.7,16.8z"/>
	<path class="st0" d="M16.9,28.2c1.9,0.7,4.1,0.7,6.1-0.1c1.9-0.7,3.6-2.2,4.6-4.2c1.1-2,1.5-4.2,1.2-6.3c-0.2-2.2-1.2-4.3-2.8-5.7
		c-1.1-1.1-2.5-2-4-2.3c-0.8-0.2-1.6,0.4-1.7,1.3c-0.1,0.9,0.6,1.6,1.3,1.8c0.8,0.4,1.6,0.9,2.3,1.5c1,1.1,1.7,2.4,1.8,3.9
		c0.2,1.5-0.1,3.1-0.8,4.3c-0.7,1.3-1.8,2.3-3.1,2.8s-2.8,0.5-4.1,0s-2.4-1.5-3.3-2.7c-0.7-1.2-1.1-2.8-1-4.3c0.1-1,0.4-2,1-2.8
		c0.4-0.7,0.4-1.6-0.1-2.2c-0.6-0.6-1.6-0.6-2.1,0.1c-0.8,1.3-1.5,2.9-1.6,4.6c-0.2,2.2,0.2,4.4,1.3,6.3
		C13.3,26.1,15,27.4,16.9,28.2z"/>
</g>
</svg>
