<?xml version="1.0" encoding="utf-8"?>
<!-- Generator: Adobe Illustrator 26.0.1, SVG Export Plug-In . SVG Version: 6.00 Build 0)  -->
<svg version="1.1" id="Слой_1" xmlns="http://www.w3.org/2000/svg" xmlns:xlink="http://www.w3.org/1999/xlink" x="0px" y="0px"
	 viewBox="0 0 13 13" style="enable-background:new 0 0 13 13;" xml:space="preserve">
<g>
	<path d="M12.4,2.2L11,0.8C10.5,0.3,9.9,0,9.2,0H3.8C3.1,0,2.5,0.3,2,0.8L0.6,2.2c0,0,0,0,0,0c0,0,0,0,0,0C0.2,2.7,0,3.3,0,3.8v6.2
		C0,11.7,1.4,13,3,13H10c1.7,0,3-1.3,3-2.9V3.8C13,3.2,12.8,2.7,12.4,2.2z M2.9,1.5c0.2-0.3,0.6-0.4,1-0.4h5.3c0.4,0,0.7,0.1,1,0.4
		l0.6,0.6H2.3L2.9,1.5z M11.9,10.1c0,1-0.9,1.9-1.9,1.9H3c-1.1,0-1.9-0.8-1.9-1.9V3.8c0-0.2,0.1-0.5,0.2-0.6h10.3c0,0,0,0,0,0
		c0.1,0.2,0.2,0.4,0.2,0.6V10.1z"/>
	<path d="M8.2,7.6L7.1,8.6V5.4c0-0.3-0.3-0.5-0.6-0.5S5.9,5.1,5.9,5.4v3.2L4.8,7.6C4.6,7.3,4.2,7.4,4,7.6C3.8,7.8,3.8,8.1,4,8.3
		l2.1,1.9c0.2,0.2,0.6,0.2,0.8,0L9,8.3c0.2-0.2,0.2-0.6,0-0.8C8.8,7.4,8.4,7.3,8.2,7.6z"/>
</g>
</svg>
