<?xml version="1.0" encoding="utf-8"?>
<!-- Generator: Adobe Illustrator 26.0.1, SVG Export Plug-In . SVG Version: 6.00 Build 0)  -->
<svg version="1.1" id="Слой_1" xmlns="http://www.w3.org/2000/svg" xmlns:xlink="http://www.w3.org/1999/xlink" x="0px" y="0px"
	 viewBox="0 0 25 24" style="enable-background:new 0 0 25 24;" xml:space="preserve">
<g>
	<path d="M21.6,15.7c-0.3-0.4-0.7-0.8-1.2-1.4l0,0c-0.6-0.7-0.8-0.9-1-1.2c0-0.1,0-0.1-0.1-0.2c-0.1-0.3-0.1-0.6-0.1-1.5V8.1
		c0-1.1-0.3-2.6-1.2-3.9c-1-1.4-2.5-2.5-4.9-2.6c-0.2,0-0.4,0-0.5,0s-0.4,0-0.5,0C9.5,1.7,8,2.8,7,4.1C6.1,5.5,5.8,7,5.8,8.1v3.3
		c0,1,0,1.3-0.1,1.5c0,0.1,0,0.1-0.1,0.2c-0.1,0.3-0.3,0.5-1,1.2l0,0c-0.5,0.5-0.9,1-1.2,1.4C3.2,16,2.9,16.6,3,17.2
		c0,0.2,0.1,0.3,0.2,0.5c0.3,0.5,0.9,0.7,1.4,0.7c0.5,0.1,1.1,0.1,1.8,0.1h12.2c0.7,0,1.3,0,1.8-0.1c0.4-0.1,1-0.2,1.4-0.7
		c0.1-0.2,0.2-0.3,0.2-0.5C22.1,16.6,21.8,16,21.6,15.7z M20.2,16.8c-0.3,0-0.9,0-1.6,0H6.5c-0.8,0-1.3,0-1.6,0c-0.1,0-0.1,0-0.2,0
		c0,0,0.1-0.1,0.1-0.1C5,16.3,5.3,16,5.8,15.4c0,0,0.1-0.1,0.1-0.1c0.5-0.6,0.9-1,1.2-1.5c0-0.1,0.1-0.2,0.1-0.3
		c0.2-0.6,0.2-1.1,0.2-1.9c0,0,0-0.1,0-0.1V8.1c0-0.8,0.2-2,0.9-3c0.7-1,1.8-1.8,3.7-1.9c0.1,0,0.3,0,0.4,0s0.3,0,0.4,0
		c1.9,0.1,3,1,3.7,1.9c0.7,1,0.9,2.2,0.9,3v3.3c0,0,0,0.1,0,0.1c0,0.8,0,1.4,0.2,1.9c0,0.1,0.1,0.2,0.1,0.3c0.2,0.5,0.6,1,1.2,1.5
		c0,0,0.1,0.1,0.1,0.1c0.5,0.6,0.9,1,1.1,1.2c0,0.1,0.1,0.1,0.1,0.1C20.3,16.8,20.2,16.8,20.2,16.8z"/>
	<path d="M14.1,19.5h-3.2c-0.6,0-1.1,0.5-0.9,1c0.4,1.2,1.3,2,2.5,2s2.1-0.8,2.5-2C15.1,20,14.6,19.5,14.1,19.5z"/>
</g>
</svg>
