<?xml version="1.0" encoding="utf-8"?>
<!-- Generator: Adobe Illustrator 26.0.1, SVG Export Plug-In . SVG Version: 6.00 Build 0)  -->
<svg version="1.1" id="Слой_1" xmlns="http://www.w3.org/2000/svg" xmlns:xlink="http://www.w3.org/1999/xlink" x="0px" y="0px"
	 viewBox="0 0 100 115" style="enable-background:new 0 0 100 115;" xml:space="preserve">
<style type="text/css">
	.st0{fill-rule:evenodd;clip-rule:evenodd;}
</style>
<path class="st0" d="M85.4,29.3c-4.2-4.2-7-7-9.6-10.5c-2.6-3.4-5.2-7.6-8.6-14.5c-0.9-1.8-2.6-3.2-4.6-3.7c-2-0.5-4.1-0.2-5.8,1
	c-2.5,1.6-4.4,4-5.9,6.3c-1.5,2.4-2.9,5.1-4.1,8c-2.4,5.7-4.4,12.6-6,19.5c-2,8.8-3.6,18-4.4,25.6C33,58.6,31,56,29.7,53.3
	c-2.3-4.9-2.8-11-2.8-18.9c0-2.9-1.7-5.5-4.4-6.6c-2.7-1.1-5.7-0.5-7.8,1.5C4.9,39.1,0,51.9,0,64.6C0,77.4,4.9,90.2,14.6,100
	c19.5,19.5,51.2,19.5,70.7,0c9.8-9.8,14.6-22.6,14.6-35.3C100,51.9,95.1,39.1,85.4,29.3z M65.2,94.1c-8.4,8.4-21.9,8.4-30.3,0
	c-4.2-4.2-6.3-9.7-6.3-15.1c0,0,6.3,3.6,17.9,3.6c0-7.1,3.6-28.6,8.9-32.1c3.6,7.1,5.6,9.2,9.8,13.4c4.2,4.2,6.3,9.7,6.3,15.1
	C71.4,84.4,69.3,89.9,65.2,94.1z"/>
</svg>
