<?xml version="1.0" encoding="utf-8"?>
<!-- Generator: Adobe Illustrator 26.0.1, SVG Export Plug-In . SVG Version: 6.00 Build 0)  -->
<svg version="1.1" id="Слой_1" xmlns="http://www.w3.org/2000/svg" xmlns:xlink="http://www.w3.org/1999/xlink" x="0px" y="0px"
	 viewBox="0 0 20 22" style="enable-background:new 0 0 20 22;" xml:space="preserve">
<style type="text/css">
	.st0{fill-rule:evenodd;clip-rule:evenodd;}
</style>
<path class="st0" d="M5.2,0c0.6,0,1,0.4,1,1v1c0.3,0,0.7,0,1,0c0.1,0,0.1,0,0.2,0h6.2V1c0-0.6,0.5-1,1-1c0.6,0,1,0.4,1,1v1.1
	C18.2,2.6,20,4.7,20,7.2v6.7c0,1.2,0,2.2-0.1,3c-0.1,0.8-0.2,1.5-0.5,2.1c-0.5,1-1.4,1.9-2.4,2.4c-0.6,0.3-1.3,0.5-2.2,0.5
	C14,22,13.1,22,11.8,22H8.2c-1.2,0-2.2,0-3-0.1c-0.8-0.1-1.5-0.2-2.2-0.5c-1-0.5-1.9-1.4-2.4-2.4c-0.3-0.6-0.5-1.3-0.5-2.1
	C0,16.1,0,15.1,0,13.9l0-4.5c0-0.1,0-0.1,0-0.2c0-1.6,0-2.7,0.3-3.6c0.6-1.5,1.8-2.7,3.3-3.2C3.8,2.3,4,2.2,4.2,2.2V1
	C4.2,0.4,4.7,0,5.2,0z M4.2,4.2c-0.9,0.4-1.7,1.1-2,2C2.1,6.7,2,7.2,2,8.4h16V7.2c0-1.4-0.9-2.6-2.2-3V5c0,0.6-0.5,1-1,1
	c-0.6,0-1-0.4-1-1V4H7.5C7,4,6.6,4,6.3,4v1c0,0.6-0.5,1-1,1s-1-0.4-1-1V4.2z M18,10.4H2v3.5c0,1.3,0,2.1,0.1,2.8
	c0.1,0.7,0.2,1.1,0.3,1.4c0.3,0.6,0.9,1.2,1.5,1.5c0.3,0.2,0.7,0.3,1.4,0.3C6,20,6.9,20,8.2,20h3.6c1.3,0,2.2,0,2.9-0.1
	c0.7-0.1,1.1-0.2,1.4-0.3c0.7-0.3,1.2-0.9,1.5-1.5c0.2-0.3,0.3-0.7,0.3-1.4C18,16,18,15.1,18,13.9V10.4z"/>
</svg>
