<?xml version="1.0" encoding="utf-8"?>
<!-- Generator: Adobe Illustrator 26.0.1, SVG Export Plug-In . SVG Version: 6.00 Build 0)  -->
<svg version="1.1" id="Слой_1" xmlns="http://www.w3.org/2000/svg" xmlns:xlink="http://www.w3.org/1999/xlink" x="0px" y="0px"
	 viewBox="0 0 20 22" style="enable-background:new 0 0 20 22;" xml:space="preserve">
<style type="text/css">
	.st0{fill-rule:evenodd;clip-rule:evenodd;}
</style>
<path class="st0" d="M15.6,2.1V1c0-0.6-0.4-1-1-1c-0.5,0-1,0.4-1,1v1H7.4C7.3,2,7.3,2,7.2,2c-0.3,0-0.7,0-1,0V1c0-0.6-0.4-1-1-1
	c-0.5,0-1,0.4-1,1v1.2C4,2.2,3.8,2.3,3.6,2.4C2.1,2.9,0.9,4.1,0.3,5.6C0,6.5,0,7.6,0,9.2c0,0.1,0,0.1,0,0.2v4.5c0,1.2,0,2.2,0.1,3
	c0,0.8,0.2,1.5,0.5,2.1C1.1,20,2,20.9,3,21.4c0.7,0.3,1.4,0.4,2.2,0.5C6,22,7,22,8.2,22h3.6c1.3,0,2.2,0,3-0.1
	c0.9,0,1.6-0.2,2.2-0.5c1-0.5,1.9-1.4,2.4-2.4c0.3-0.6,0.4-1.3,0.5-2.1c0.1-0.8,0.1-1.8,0.1-3V7.2C20,4.7,18.2,2.6,15.6,2.1z
	 M18,13.9c0,1.2,0,2.1-0.1,2.8c0,0.7-0.1,1.1-0.3,1.4c-0.3,0.6-0.8,1.2-1.5,1.5c-0.3,0.1-0.7,0.2-1.4,0.3C14,20,13.1,20,11.8,20H8.2
	c-1.3,0-2.2,0-2.9-0.1c-0.7,0-1.1-0.1-1.4-0.3c-0.6-0.3-1.2-0.9-1.5-1.5c-0.1-0.3-0.2-0.7-0.3-1.4C2,16,2,15.2,2,13.9v-3.5h16V13.9z
	 M18,8.4H2c0-1.2,0.1-1.7,0.2-2.2c0.3-0.9,1.1-1.6,2-2h0.1V5c0,0.6,0.5,1,1,1s1-0.4,1-1V4C6.6,4,7,4,7.5,4h6.3v1c0,0.6,0.4,1,1,1
	c0.5,0,1-0.4,1-1V4.2c1.3,0.4,2.2,1.6,2.2,3V8.4z"/>
</svg>
