<?xml version="1.0" encoding="utf-8"?>
<!-- Generator: Adobe Illustrator 26.0.1, SVG Export Plug-In . SVG Version: 6.00 Build 0)  -->
<svg version="1.1" id="Слой_1" xmlns="http://www.w3.org/2000/svg" xmlns:xlink="http://www.w3.org/1999/xlink" x="0px" y="0px"
	 viewBox="0 0 12 12" style="enable-background:new 0 0 12 12;" xml:space="preserve">
<path d="M12,1.2C12,0.5,11.5,0,10.8,0c-0.3,0-0.6,0.1-0.8,0.3l-4,4l-4-4C1.8,0.1,1.5,0,1.2,0C0.5,0,0,0.5,0,1.2C0,1.5,0.1,1.8,0.3,2
	l4,4l-4,4C0.1,10.2,0,10.5,0,10.8C0,11.5,0.5,12,1.2,12c0.3,0,0.6-0.1,0.9-0.3l3.9-4l4,4c0.2,0.2,0.5,0.3,0.8,0.3
	c0.7,0,1.2-0.5,1.2-1.2c0-0.3-0.1-0.6-0.4-0.8l-4-4l4-4C11.9,1.8,12,1.5,12,1.2z"/>
</svg>
