<?xml version="1.0" encoding="utf-8"?>
<!-- Generator: Adobe Illustrator 26.0.1, SVG Export Plug-In . SVG Version: 6.00 Build 0)  -->
<svg version="1.1" id="Слой_1" xmlns="http://www.w3.org/2000/svg" xmlns:xlink="http://www.w3.org/1999/xlink" x="0px" y="0px"
	 viewBox="0 0 25 24" style="enable-background:new 0 0 25 24;" xml:space="preserve">
<style type="text/css">
	.st0{fill-rule:evenodd;clip-rule:evenodd;}
</style>
<path class="st0" d="M22.3,9.4c-0.1-0.9-0.4-1.6-0.9-2.3C21.3,7.1,21.2,7,21.2,7c-0.6-0.6-1.4-0.8-2.3-0.9c-0.8-0.1-1.9-0.1-3.2-0.1
	H15c-0.5,0-0.7,0-0.8,0c-0.3-0.1-0.6-0.2-0.9-0.4C13.1,5.5,13,5.3,12.7,5c0,0,0,0,0,0c-0.3-0.3-0.5-0.5-0.8-0.7
	c-0.5-0.4-1.1-0.6-1.7-0.7c-0.3,0-0.6,0-1,0c0,0,0,0-0.1,0H8.6c-1,0-1.8,0-2.4,0.1C5.5,3.6,4.9,3.8,4.4,4.1C3.9,4.4,3.5,4.8,3.2,5.3
	C2.9,5.8,2.7,6.4,2.7,7.1C2.6,7.7,2.6,8.5,2.6,9.5v4.2c0,1.3,0,2.5,0.1,3.3c0.1,0.9,0.4,1.7,1,2.3c0.6,0.6,1.4,0.9,2.3,1
	c0.9,0.1,2,0.1,3.3,0.1h6.2c1.3,0,2.5,0,3.3-0.1c0.9-0.1,1.7-0.4,2.3-1c0.6-0.6,0.9-1.4,1-2.3c0.1-0.9,0.1-2,0.1-3.3v-1.1
	C22.4,11.3,22.4,10.3,22.3,9.4z M20.6,13.7c0,1.4,0,2.4-0.1,3.1c-0.1,0.7-0.3,1.1-0.5,1.3c-0.2,0.2-0.6,0.4-1.3,0.5
	c-0.7,0.1-1.7,0.1-3.1,0.1H9.5c-1.4,0-2.4,0-3.1-0.1c-0.7-0.1-1.1-0.3-1.3-0.5c-0.2-0.2-0.4-0.6-0.5-1.3c-0.1-0.7-0.1-1.7-0.1-3.1
	V9.5c0-1,0-1.7,0.1-2.3c0.1-0.5,0.1-0.8,0.3-1C4.9,6,5.1,5.8,5.4,5.6c0.2-0.1,0.5-0.2,1-0.3c0.5-0.1,1.3-0.1,2.3-0.1h0.4
	c0.5,0,0.7,0,0.8,0c0.3,0.1,0.6,0.2,0.9,0.4c0.1,0.1,0.2,0.2,0.6,0.6c0,0,0,0,0,0c0.3,0.3,0.5,0.5,0.8,0.7c0.5,0.4,1.1,0.6,1.7,0.7
	c0.3,0,0.6,0,1,0c0,0,0,0,0.1,0h0.7c1.4,0,2.3,0,3,0.1c0.7,0.1,1,0.2,1.3,0.5c0,0,0.1,0.1,0.1,0.1c0.2,0.2,0.4,0.6,0.5,1.3
	c0.1,0.7,0.1,1.6,0.1,3V13.7z"/>
</svg>
