<?xml version="1.0" encoding="utf-8"?>
<!-- Generator: Adobe Illustrator 26.0.1, SVG Export Plug-In . SVG Version: 6.00 Build 0)  -->
<svg version="1.1" id="Слой_1" xmlns="http://www.w3.org/2000/svg" xmlns:xlink="http://www.w3.org/1999/xlink" x="0px" y="0px"
	 viewBox="0 0 25 24" style="enable-background:new 0 0 25 24;" xml:space="preserve">
<style type="text/css">
	.st0{fill-rule:evenodd;clip-rule:evenodd;}
</style>
<path class="st0" d="M22.3,4.8C22,4.4,21.6,4,21,3.5L21,3.4c-0.5-0.5-0.9-0.9-1.3-1.2c-0.4-0.3-0.9-0.6-1.4-0.6c-0.2,0-0.4,0-0.6,0
	c-0.5,0.1-1,0.3-1.4,0.6c-0.4,0.3-0.8,0.7-1.3,1.2L3.3,15c0,0-0.1,0.1-0.1,0.1c-0.4,0.4-0.7,0.7-0.9,1.1c-0.1,0.1-0.1,0.2-0.1,0.3
	C2,17,2,17.4,2,18c0,0,0,0.1,0,0.1l0,0c0,0.7,0,1.3,0.1,1.8c0.1,0.5,0.2,1,0.5,1.5c0.1,0.2,0.3,0.4,0.5,0.5c0.4,0.3,0.9,0.5,1.4,0.5
	c0.5,0.1,1.1,0.1,1.8,0.1h0.1c0,0,0.1,0,0.1,0c0.6,0,1,0,1.5-0.2c0.1,0,0.2-0.1,0.3-0.1C8.7,22,9,21.7,9.4,21.3c0,0,0.1-0.1,0.1-0.1
	L21,9.7c0.5-0.5,1-1,1.3-1.4c0.3-0.4,0.6-0.9,0.7-1.4c0-0.2,0-0.4,0-0.6C22.9,5.7,22.7,5.3,22.3,4.8z M8.3,20
	c-0.5,0.5-0.6,0.6-0.8,0.7c0,0-0.1,0-0.1,0c-0.1,0-0.3,0.1-1,0.1H6.4c-0.8,0-1.3,0-1.6,0c-0.4,0-0.5-0.1-0.6-0.2
	c-0.1-0.1-0.1-0.1-0.2-0.2c-0.1-0.1-0.1-0.2-0.2-0.6c0-0.4,0-0.9,0-1.7c0-0.7,0-0.9,0.1-1c0,0,0-0.1,0.1-0.1
	c0.1-0.1,0.2-0.2,0.7-0.8l9.6-9.6l3.8,3.8L8.3,20z M21.3,6.7c0,0.1-0.1,0.3-0.3,0.6c-0.2,0.3-0.6,0.7-1.2,1.2l-0.6,0.6l-3.8-3.8
	l0.7-0.7c0.6-0.6,0.9-0.9,1.2-1.1c0.3-0.2,0.4-0.3,0.5-0.3c0.1,0,0.2,0,0.2,0c0.1,0,0.3,0.1,0.5,0.3c0.3,0.2,0.7,0.6,1.2,1.1
	c0.6,0.6,0.9,0.9,1.2,1.2c0.2,0.3,0.3,0.4,0.3,0.6C21.3,6.6,21.3,6.6,21.3,6.7z"/>
</svg>
