<?xml version="1.0" encoding="utf-8"?>
<!-- Generator: Adobe Illustrator 26.0.1, SVG Export Plug-In . SVG Version: 6.00 Build 0)  -->
<svg version="1.1" id="Слой_1" xmlns="http://www.w3.org/2000/svg" xmlns:xlink="http://www.w3.org/1999/xlink" x="0px" y="0px"
	 viewBox="0 0 24 24" style="enable-background:new 0 0 24 24;" xml:space="preserve">
<style type="text/css">
	.st0{fill-rule:evenodd;clip-rule:evenodd;}
</style>
<g>
	<path class="st0" d="M8,12.1c2.4,0,4.3-2,4.3-4.3S10.4,3.5,8,3.5s-4.3,2-4.3,4.3S5.6,12.1,8,12.1z M8,5.3c1.3,0,2.5,1.1,2.5,2.5
		S9.3,10.3,8,10.3c-1.3,0-2.5-1.1-2.5-2.5S6.7,5.3,8,5.3z"/>
	<path class="st0" d="M16.2,12.9c1.8,0,3.2-1.5,3.2-3.3S18,6.3,16.2,6.3c-1.8,0-3.2,1.5-3.2,3.3S14.4,12.9,16.2,12.9z M16.2,8.1
		c0.8,0,1.4,0.6,1.4,1.5c0,0.8-0.7,1.5-1.4,1.5c-0.8,0-1.4-0.6-1.4-1.5C14.8,8.8,15.5,8.1,16.2,8.1z"/>
	<path class="st0" d="M8,14.4c-2.5,0-4.3,0.8-5.5,1.8c-1.1,1-1.6,2.3-1.7,3.3c0,0.5,0.3,0.9,0.8,1s0.9-0.3,1-0.8
		c0-0.5,0.4-1.4,1.1-2.1c0.8-0.7,2.1-1.4,4.2-1.4c2.2,0,3.5,0.6,4.2,1.4c0.8,0.7,1.1,1.6,1.1,2.1c0,0.5,0.5,0.9,1,0.8
		c0.5,0,0.9-0.5,0.8-1c-0.1-0.9-0.6-2.2-1.7-3.3C12.3,15.2,10.5,14.4,8,14.4z"/>
	<path class="st0" d="M21.5,16.3c-1.2-1.1-2.9-1.8-5.5-1.8c-0.5,0-0.9,0.4-0.9,0.9c0,0.5,0.4,0.9,0.9,0.9c2.2,0,3.5,0.6,4.2,1.4
		c0.8,0.7,1.1,1.6,1.1,2.1c0,0.5,0.5,0.9,1,0.8c0.5,0,0.9-0.5,0.8-1C23.1,18.6,22.6,17.3,21.5,16.3z"/>
</g>
</svg>
