<?xml version="1.0" encoding="utf-8"?>
<!-- Generator: Adobe Illustrator 26.0.1, SVG Export Plug-In . SVG Version: 6.00 Build 0)  -->
<svg version="1.1" id="Слой_1" xmlns="http://www.w3.org/2000/svg" xmlns:xlink="http://www.w3.org/1999/xlink" x="0px" y="0px"
	 viewBox="0 0 14 14" style="enable-background:new 0 0 14 14;" xml:space="preserve">
<path d="M13.7,4.8c-0.3-0.3-1-0.3-2.5-0.4l-0.7,0c-0.4,0-0.6,0-0.8-0.1C9.5,4.2,9.4,4.1,9.2,3.9C9.1,3.8,9,3.6,8.9,3.2L8.7,2.5
	C8.1,1.1,7.9,0.3,7.5,0.1C7.2,0,6.8,0,6.5,0.1C6.1,0.3,5.9,1.1,5.3,2.5L5.1,3.2C5,3.6,4.9,3.8,4.8,3.9C4.6,4.1,4.5,4.2,4.3,4.3
	C4.2,4.3,4,4.3,3.5,4.4l-0.7,0C1.4,4.5,0.6,4.5,0.3,4.8C0.1,5.1,0,5.4,0,5.8c0.1,0.4,0.6,0.9,1.8,1.9l0.6,0.5C2.7,8.4,2.9,8.5,3,8.7
	C3,8.9,3.1,9,3.1,9.2c0,0.2,0,0.4-0.2,0.8l-0.2,0.7c-0.4,1.5-0.6,2.2-0.4,2.6c0.2,0.3,0.5,0.6,0.8,0.6c0.4,0.1,1-0.4,2.2-1.2L6,12.4
	C6.4,12.1,6.6,12,6.7,12c0.2,0,0.3,0,0.5,0c0.2,0,0.4,0.2,0.7,0.4l0.6,0.4c1.2,0.8,1.8,1.3,2.2,1.2c0.4-0.1,0.7-0.3,0.8-0.6
	c0.2-0.4,0-1.1-0.4-2.6L11,10.1c-0.1-0.4-0.2-0.6-0.2-0.8C10.9,9,11,8.9,11,8.7c0.1-0.2,0.3-0.3,0.6-0.6l0.6-0.5
	c1.1-0.9,1.7-1.4,1.8-1.9C14,5.4,13.9,5.1,13.7,4.8z"/>
</svg>
